<!-- Generated by IcoMoon.io -->
<svg version="1.1" xmlns="http://www.w3.org/2000/svg" width="24" height="32" viewBox="0 0 24 32">
<title>smartphone</title>
<path fill="#757575" d="M16.667 0h-9.333c-1.103 0-2 0.897-2 2v17.333c0 1.103 0.897 2 2 2h9.333c1.103 0 2-0.897 2-2v-17.333c0-1.103-0.897-2-2-2zM7.333 1.333h9.333c0.368 0 0.667 0.299 0.667 0.667v14h-10.667v-14c0-0.368 0.299-0.667 0.667-0.667zM16.667 20h-9.333c-0.368 0-0.667-0.299-0.667-0.667v-2h10.667v2c0 0.368-0.299 0.667-0.667 0.667z"></path>
<path fill="#000" d="M17.333 16v1.333h1.333v-1.333h-1.333zM6.667 16h-1.333v1.333h1.333v-1.333zM6.667 17.333v-1.333h-1.333v1.333h1.333zM17.333 17.333h1.333v-1.333h-1.333v1.333zM16.667-1.333h-9.333v2.667h9.333v-2.667zM7.333-1.333c-1.839 0-3.333 1.494-3.333 3.333h2.667c0-0.367 0.3-0.667 0.667-0.667v-2.667zM4 2v17.333h2.667v-17.333h-2.667zM4 19.333c0 1.839 1.494 3.333 3.333 3.333v-2.667c-0.367 0-0.667-0.3-0.667-0.667h-2.667zM7.333 22.667h9.333v-2.667h-9.333v2.667zM16.667 22.667c1.839 0 3.333-1.494 3.333-3.333h-2.667c0 0.367-0.3 0.667-0.667 0.667v2.667zM20 19.333v-17.333h-2.667v17.333h2.667zM20 2c0-1.839-1.494-3.333-3.333-3.333v2.667c0.367 0 0.667 0.3 0.667 0.667h2.667zM7.333 2.667h9.333v-2.667h-9.333v2.667zM16.667 2.667c-0.369 0-0.667-0.298-0.667-0.667h2.667c0-1.104-0.896-2-2-2v2.667zM16 2v14h2.667v-14h-2.667zM17.333 14.667h-10.667v2.667h10.667v-2.667zM8 16v-14h-2.667v14h2.667zM8 2c0 0.369-0.298 0.667-0.667 0.667v-2.667c-1.104 0-2 0.896-2 2h2.667zM16.667 18.667h-9.333v2.667h9.333v-2.667zM7.333 18.667c0.369 0 0.667 0.298 0.667 0.667h-2.667c0 1.104 0.896 2 2 2v-2.667zM8 19.333v-2h-2.667v2h2.667zM6.667 18.667h10.667v-2.667h-10.667v2.667zM16 17.333v2h2.667v-2h-2.667zM16 19.333c0-0.369 0.298-0.667 0.667-0.667v2.667c1.104 0 2-0.896 2-2h-2.667z"></path>
<path fill="#757575" d="M8.471 18.319c0.26 0.243 0.26 0.637 0 0.88s-0.682 0.243-0.943 0c-0.26-0.243-0.26-0.637 0-0.88s0.682-0.243 0.943 0z"></path>
</svg>
